<svg xmlns="http://www.w3.org/2000/svg" viewBox="0 0 512 512"><path d="M435.143 129.356a20.002 20.002 0 0 0-25.407-2.384c-29.926 20.398-180.03 122.969-196.162 139.1-23.394 23.395-23.394 61.459 0 84.854 11.697 11.696 27.063 17.545 42.427 17.545s30.729-5.849 42.427-17.545c16.131-16.132 118.701-166.236 139.1-196.162a20.006 20.006 0 0 0-2.385-25.408zM270.142 322.641c-7.797 7.799-20.486 7.799-28.283 0-7.798-7.797-7.799-20.482-.004-28.28 6.268-6.194 48.885-36.588 101.319-73.035-36.446 52.434-66.84 95.049-73.032 101.315z"/><path d="M92.231 401.523l-24.69 12.044C49.475 381.325 40 345.338 40 308.499c0-26.991 4.977-52.842 14.06-76.683l28.291 13.57a19.924 19.924 0 0 0 8.636 1.972c7.453 0 14.608-4.185 18.047-11.355 4.776-9.959.576-21.906-9.384-26.683l-27.932-13.398c34.717-56.62 94.784-96.095 164.283-102.505v30.081c0 11.046 8.954 20 20 20s20-8.954 20-20V93.402c23.828 2.169 46.884 8.237 68.771 18.117 10.065 4.545 21.912.066 26.457-9.999 4.545-10.068.068-21.913-10-26.458C328.063 60.091 292.659 52.499 256 52.499c-68.38 0-132.667 26.628-181.02 74.98C26.629 175.832 0 240.119 0 308.499c0 50.53 14.998 99.674 43.373 142.115a20 20 0 0 0 25.396 6.86l41-20c9.928-4.843 14.05-16.816 9.207-26.744-4.843-9.927-16.817-14.048-26.745-9.207zM489.436 203.271c-4.544-10.067-16.387-14.547-26.458-10-10.067 4.545-14.544 16.39-9.999 26.457C465.601 247.686 472 277.553 472 308.499c0 36.894-9.506 72.939-27.625 105.218l-25.777-12.275c-9.971-4.748-21.906-.515-26.656 9.459-4.749 9.972-.514 21.907 9.459 26.656l42 20a19.997 19.997 0 0 0 25.225-6.942C497.002 408.173 512 359.029 512 308.499c0-36.659-7.592-72.063-22.564-105.228z"/></svg>